<svg version="1.2" xmlns="http://www.w3.org/2000/svg" viewBox="0 0 864 1173" width="864" height="1173"><defs><linearGradient id="P" gradientUnits="userSpaceOnUse"/><linearGradient id="g1" x1="301.3" y1="1130.5" x2="656.5" y2="343.6" href="#P"><stop stop-color="#cd7c32"/><stop offset="1" stop-color="#fbdabe"/></linearGradient><linearGradient id="g2" x1="161.6" y1="1021.4" x2="658.1" y2="336.6" href="#P"><stop stop-color="#b7b7b7"/><stop offset="1" stop-color="#fff"/></linearGradient></defs><style>.a{display:none;fill:url(#g1)}.b{fill:url(#g2)}</style><path class="a" d="m90.4 927.9c45.6 35.5 119 35.5 176.5 52.4 9.1 50.9 20.5 101.1 34.8 150.2-52.8-21.9-100.6-57-141.2-102.1-26.7-29.5-50.2-63.3-70.1-100.5zm-37.7-546.9c58-18.9 135.9-36.6 204.6-45.2-23.8 209.3-28 433.2 9.6 644.5-57.5-16.9-130.9-16.9-176.5-52.4-48.3-90.1-75-200.1-71.5-317.4 0.2-5.8 1.1-30 1.4-36.4 2.9-68.5 14.2-133.5 32.4-193.1zm117.6-219.6c40.5-46.7 87.3-82.7 138-105.1-20.3 73-38.7 171.4-51 279.5-68.7 8.6-146.6 26.3-204.6 45.2 26.3-86.3 67.1-161.3 117.6-219.6zm96.6 818.9c62.7 17.2 131.9 23.6 200.3 20.1 0.5 52.6-3.4 104.7-4.6 154.5q-15.7 1.5-31.8 1.5-0.2 0-0.4 0-0.1 0-0.3 0c-45 0-88.2-9.1-128.4-25.9-14.3-49.1-25.7-99.3-34.8-150.2zm-9.6-644.5c68.3-8.9 137.8-12.8 207.2-11.2 8 204.7 8.1 470.7 2.7 675.8-68.4 3.5-137.6-2.9-200.3-20.1-37.6-211.3-33.4-435.2-9.6-644.5zm51-279.5c38.7-17.1 79.7-26.3 121.9-26.3q0.1 0 0.2 0 0.2 0 0.3 0 15.6 0 30.9 1.6c3.2 76.2 2.9 184.2 2.9 293-69.4-1.6-138.9 2.3-207.2 11.2 12.3-108.1 30.7-206.5 51-279.5zm158.9 944.1c63.7-3.3 126.9-15.2 183.8-35.1-10.8 49.1-25.6 97.1-46 142.2-43.7 26-91.6 42.5-142.4 47.4 1.2-49.8 5.1-101.9 4.6-154.5zm-2.7-675.8c64.5 1.5 129 7.7 192.4 19 36.6 200.6 38 422.1-5.9 621.7-56.9 19.9-120.1 31.8-183.8 35.1 5.4-205.1 5.3-471.1-2.7-675.8zm-2.9-293c47.8 5.1 93.6 22 135.9 48.7 32.1 65.6 43.7 167.9 59.4 263.3-63.4-11.3-127.9-17.5-192.4-19 0-108.8 0.3-216.8-2.9-293zm189.4 933.7c40.9-14.3 83.8-16.1 119.5-37.4-19.9 37.2-43.4 71-70.1 100.5-28.5 31.7-60.6 58.4-95.4 79.1 20.4-45.1 35.2-93.1 46-142.2zm5.9-621.7c51.3 9.1 101.9 21.5 151.3 37.4 18.2 59.6 29.5 124.6 32.4 193.1 0.3 6.4 1.2 30.6 1.4 36.4 3.5 117.3-23.2 227.3-71.5 317.4-35.7 21.3-78.6 23.1-119.5 37.4 43.9-199.6 42.5-421.1 5.9-621.7zm-59.4-263.3c33.6 21.2 64.9 48.5 93.1 81.1 50.5 58.3 91.3 133.3 117.6 219.6-49.4-15.9-100-28.3-151.3-37.4-15.7-95.4-27.3-197.7-59.4-263.3z"/><path class="b" d="m91.3 920.9c45.6 35.5 119.1 35.5 176.6 52.4 9 50.9 20.5 101.1 34.7 150.2-52.7-21.9-100.5-57-141.1-102.1-26.7-29.5-50.2-63.3-70.2-100.5zm-37.6-546.9c58-18.9 135.9-36.6 204.6-45.2-23.8 209.3-28 433.2 9.6 644.5-57.5-16.9-131-16.9-176.6-52.4-48.2-90.1-74.9-200.1-71.4-317.4 0.2-5.8 1.1-30 1.4-36.4 2.9-68.5 14.2-133.5 32.4-193.1zm117.6-219.6c40.5-46.7 87.3-82.7 138-105.1-20.3 73-38.7 171.4-51 279.5-68.7 8.6-146.6 26.3-204.6 45.2 26.3-86.3 67.1-161.3 117.6-219.6zm96.6 818.9c62.7 17.2 131.8 23.6 200.3 20.1 0.5 52.6-3.4 104.7-4.6 154.5q-15.8 1.5-31.9 1.5-0.1 0-0.3 0-0.1 0-0.3 0c-45 0-88.2-9.1-128.5-25.9-14.2-49.1-25.7-99.3-34.7-150.2zm-9.6-644.5c68.3-8.9 137.7-12.8 207.1-11.2 8.1 204.7 8.2 470.7 2.8 675.8-68.5 3.5-137.6-2.9-200.3-20.1-37.6-211.3-33.4-435.2-9.6-644.5zm51-279.5c38.7-17.1 79.7-26.3 121.8-26.3q0.2 0 0.3 0 0.2 0 0.3 0 15.6 0 30.9 1.6c3.2 76.2 2.9 184.2 2.8 293-69.4-1.6-138.8 2.3-207.1 11.2 12.3-108.1 30.7-206.5 51-279.5zm158.9 944.1c63.7-3.3 126.8-15.2 183.8-35.1-10.8 49.1-25.6 97.1-46.1 142.2-43.6 26-91.5 42.5-142.3 47.4 1.2-49.8 5.1-101.9 4.6-154.5zm-2.8-675.8c64.6 1.5 129 7.7 192.5 19 36.6 200.6 37.9 422.1-5.9 621.7-57 19.9-120.1 31.8-183.8 35.1 5.4-205.1 5.3-471.1-2.8-675.8zm-2.8-293c47.8 5.1 93.6 22 135.9 48.7 32.1 65.6 43.7 167.9 59.4 263.3-63.5-11.3-127.9-17.5-192.5-19 0.1-108.8 0.4-216.8-2.8-293zm189.4 933.7c40.9-14.3 83.8-16.1 119.5-37.4-19.9 37.2-43.5 71-70.1 100.5-28.6 31.7-60.6 58.4-95.5 79.1 20.5-45.1 35.3-93.1 46.1-142.2zm5.9-621.7c51.3 9.1 101.9 21.5 151.3 37.4 18.2 59.6 29.5 124.6 32.4 193.1 0.3 6.4 1.2 30.6 1.3 36.4 3.6 117.3-23.1 227.3-71.4 317.4-35.7 21.3-78.6 23.1-119.5 37.4 43.8-199.6 42.5-421.1 5.9-621.7zm-59.4-263.3c33.6 21.2 64.8 48.5 93.1 81.1 50.5 58.3 91.3 133.3 117.6 219.6-49.4-15.9-100-28.3-151.3-37.4-15.7-95.4-27.3-197.7-59.4-263.3z"/></svg>