<svg width="112" height="101" viewBox="0 0 112 101" fill="none" xmlns="http://www.w3.org/2000/svg">
<path d="M8.46154 85.7181L13.3974 94.2438C14.4231 96.0386 15.8974 97.4489 17.6282 98.4745L35.2564 67.9617H0C0 69.9489 0.512821 71.9361 1.53846 73.7309L8.46154 85.7181Z" fill="#0066DA"/>
<path d="M55.9615 32.0644L38.3333 1.55151C36.6026 2.57715 35.1282 3.98741 34.1026 5.78228L1.53846 62.1926C0.531683 63.9488 0.00134047 65.9375 0 67.9618H35.2564L55.9615 32.0644Z" fill="#00AC47"/>
<path d="M94.2949 98.4745C96.0256 97.4489 97.5 96.0386 98.5256 94.2438L100.577 90.7181L110.385 73.7309C111.41 71.9361 111.923 69.9489 111.923 67.9617H76.6641L84.1667 82.7053L94.2949 98.4745Z" fill="#EA4335"/>
<path d="M55.9614 32.0642L73.5897 1.5514C71.8589 0.52576 69.8718 0.0129395 67.8205 0.0129395H44.1026C42.0513 0.0129395 40.0641 0.589862 38.3333 1.5514L55.9614 32.0642Z" fill="#00832D"/>
<path d="M76.6667 67.9617H35.2564L17.6282 98.4745C19.359 99.5002 21.3462 100.013 23.3974 100.013H88.5256C90.5769 100.013 92.5641 99.4361 94.2949 98.4745L76.6667 67.9617Z" fill="#2684FC"/>
<path d="M94.1025 33.9875L77.8204 5.78228C76.7948 3.98741 75.3204 2.57715 73.5896 1.55151L55.9614 32.0644L76.6666 67.9618H111.859C111.859 65.9746 111.346 63.9875 110.321 62.1926L94.1025 33.9875Z" fill="#FFBA00"/>
</svg>
