<svg width="74" height="100" viewBox="0 0 74 100" fill="none" xmlns="http://www.w3.org/2000/svg">
<mask id="mask0_14_4" style="mask-type:alpha" maskUnits="userSpaceOnUse" x="0" y="1" width="71" height="98">
<path d="M44.3979 1.43042H6.86679C3.22406 1.43042 0.243652 4.41083 0.243652 8.05356V91.9466C0.243652 95.5894 3.22406 98.5698 6.86679 98.5698H64.2673C67.91 98.5698 70.8904 95.5894 70.8904 91.9466V27.923L44.3979 1.43042Z" fill="white"/>
</mask>
<g mask="url(#mask0_14_4)">
<path d="M44.3979 1.43042H6.86679C3.22406 1.43042 0.243652 4.41083 0.243652 8.05356V91.9466C0.243652 95.5894 3.22406 98.5698 6.86679 98.5698H64.2673C67.91 98.5698 70.8904 95.5894 70.8904 91.9466V27.923L55.4364 16.8844L44.3979 1.43042Z" fill="#0F9D58"/>
</g>
<mask id="mask1_14_4" style="mask-type:alpha" maskUnits="userSpaceOnUse" x="0" y="1" width="71" height="98">
<path d="M44.3979 1.43042H6.86679C3.22406 1.43042 0.243652 4.41083 0.243652 8.05356V91.9466C0.243652 95.5894 3.22406 98.5698 6.86679 98.5698H64.2673C67.91 98.5698 70.8904 95.5894 70.8904 91.9466V27.923L44.3979 1.43042Z" fill="white"/>
</mask>
<g mask="url(#mask1_14_4)">
<path d="M17.9053 48.8962V80.908H53.2287V48.8962H17.9053ZM33.3593 76.4926H22.3208V70.9733H33.3593V76.4926ZM33.3593 67.6617H22.3208V62.1424H33.3593V67.6617ZM33.3593 58.8309H22.3208V53.3116H33.3593V58.8309ZM48.8133 76.4926H37.7747V70.9733H48.8133V76.4926ZM48.8133 67.6617H37.7747V62.1424H48.8133V67.6617ZM48.8133 58.8309H37.7747V53.3116H48.8133V58.8309Z" fill="#F1F1F1"/>
</g>
<mask id="mask2_14_4" style="mask-type:alpha" maskUnits="userSpaceOnUse" x="0" y="1" width="71" height="98">
<path d="M44.3979 1.43042H6.86679C3.22406 1.43042 0.243652 4.41083 0.243652 8.05356V91.9466C0.243652 95.5894 3.22406 98.5698 6.86679 98.5698H64.2673C67.91 98.5698 70.8904 95.5894 70.8904 91.9466V27.923L44.3979 1.43042Z" fill="white"/>
</mask>
<g mask="url(#mask2_14_4)">
<path d="M46.3352 25.9856L70.8905 50.5354V27.9229L46.3352 25.9856Z" fill="url(#paint0_linear_14_4)"/>
</g>
<mask id="mask3_14_4" style="mask-type:alpha" maskUnits="userSpaceOnUse" x="0" y="1" width="71" height="98">
<path d="M44.3979 1.43042H6.86679C3.22406 1.43042 0.243652 4.41083 0.243652 8.05356V91.9466C0.243652 95.5894 3.22406 98.5698 6.86679 98.5698H64.2673C67.91 98.5698 70.8904 95.5894 70.8904 91.9466V27.923L44.3979 1.43042Z" fill="white"/>
</mask>
<g mask="url(#mask3_14_4)">
<path d="M44.3979 1.43042V21.2999C44.3979 24.9591 47.3617 27.923 51.021 27.923H70.8905L44.3979 1.43042Z" fill="#87CEAC"/>
</g>
<mask id="mask4_14_4" style="mask-type:alpha" maskUnits="userSpaceOnUse" x="0" y="1" width="71" height="98">
<path d="M44.3979 1.43042H6.86679C3.22406 1.43042 0.243652 4.41083 0.243652 8.05356V91.9466C0.243652 95.5894 3.22406 98.5698 6.86679 98.5698H64.2673C67.91 98.5698 70.8904 95.5894 70.8904 91.9466V27.923L44.3979 1.43042Z" fill="white"/>
</mask>
<g mask="url(#mask4_14_4)">
<path d="M6.86679 1.43042C3.22406 1.43042 0.243652 4.41083 0.243652 8.05356V8.60548C0.243652 4.96276 3.22406 1.98235 6.86679 1.98235H44.3979V1.43042H6.86679Z" fill="white" fill-opacity="0.2"/>
</g>
<mask id="mask5_14_4" style="mask-type:alpha" maskUnits="userSpaceOnUse" x="0" y="1" width="71" height="98">
<path d="M44.3979 1.43042H6.86679C3.22406 1.43042 0.243652 4.41083 0.243652 8.05356V91.9466C0.243652 95.5894 3.22406 98.5698 6.86679 98.5698H64.2673C67.91 98.5698 70.8904 95.5894 70.8904 91.9466V27.923L44.3979 1.43042Z" fill="white"/>
</mask>
<g mask="url(#mask5_14_4)">
<path d="M65.2673 98.0176H7.86679C4.22406 98.0176 1.24365 95.0372 1.24365 91.3945V91.9464C1.24365 95.5892 4.22406 98.5696 7.86679 98.5696H65.2673C68.91 98.5696 71.8904 95.5892 71.8904 91.9464V91.3945C71.8904 95.0372 68.91 98.0176 65.2673 98.0176Z" fill="#263238" fill-opacity="0.2"/>
</g>
<mask id="mask6_14_4" style="mask-type:alpha" maskUnits="userSpaceOnUse" x="0" y="1" width="71" height="98">
<path d="M44.3979 1.43042H6.86679C3.22406 1.43042 0.243652 4.41083 0.243652 8.05356V91.9466C0.243652 95.5894 3.22406 98.5698 6.86679 98.5698H64.2673C67.91 98.5698 70.8904 95.5894 70.8904 91.9466V27.923L44.3979 1.43042Z" fill="white"/>
</mask>
<g mask="url(#mask6_14_4)">
<path d="M51.021 27.9229C47.3617 27.9229 44.3979 24.959 44.3979 21.2998V21.8517C44.3979 25.511 47.3617 28.4748 51.021 28.4748H70.8905V27.9229H51.021Z" fill="#263238" fill-opacity="0.1"/>
<path d="M44.3979 1.43042H6.86679C3.22406 1.43042 0.243652 4.41083 0.243652 8.05356V91.9466C0.243652 95.5894 3.22406 98.5698 6.86679 98.5698H64.2673C67.91 98.5698 70.8904 95.5894 70.8904 91.9466V27.923L44.3979 1.43042Z" fill="url(#paint1_radial_14_4)"/>
</g>
<defs>
<linearGradient id="paint0_linear_14_4" x1="58.6142" y1="28.0935" x2="58.6142" y2="50.5388" gradientUnits="userSpaceOnUse">
<stop stop-color="#263238" stop-opacity="0.2"/>
<stop offset="1" stop-color="#263238" stop-opacity="0.02"/>
</linearGradient>
<radialGradient id="paint1_radial_14_4" cx="0" cy="0" r="1" gradientUnits="userSpaceOnUse" gradientTransform="translate(2.48178 3.36127) scale(113.917 113.917)">
<stop stop-color="white" stop-opacity="0.1"/>
<stop offset="1" stop-color="white" stop-opacity="0"/>
</radialGradient>
</defs>
</svg>
