<svg width="135" height="101" viewBox="0 0 135 101" fill="none" xmlns="http://www.w3.org/2000/svg">
<path d="M10.014 100.026H31.2261V48.5106L0.923096 25.7834V90.935C0.923096 95.9653 4.99886 100.026 10.014 100.026Z" fill="#4285F4"/>
<path d="M103.953 100.026H125.165C130.196 100.026 134.256 95.9501 134.256 90.935V25.7834L103.953 48.5106" fill="#34A853"/>
<path d="M103.953 9.1167V48.5106L134.256 25.7834V13.6622C134.256 2.41973 121.423 -3.98936 112.438 2.75306" fill="#FBBC04"/>
<path d="M31.2261 48.5106V9.1167L67.5898 36.3894L103.953 9.1167V48.5106L67.5898 75.7834" fill="#EA4335"/>
<path d="M0.923096 13.6622V25.7834L31.2261 48.5106V9.1167L22.7413 2.75306C13.7413 -3.98936 0.923096 2.41973 0.923096 13.6622Z" fill="#C5221F"/>
</svg>
