<svg width="73" height="100" viewBox="0 0 73 100" fill="none" xmlns="http://www.w3.org/2000/svg">
<g clip-path="url(#clip0_14_3)">
<mask id="mask0_14_3" style="mask-type:alpha" maskUnits="userSpaceOnUse" x="-1" y="0" width="72" height="99">
<path d="M43.8232 0H5.72348C2.02557 0 -1 3.02557 -1 6.72348V91.8876C-1 95.5855 2.02557 98.6111 5.72348 98.6111H63.9937C67.6916 98.6111 70.7172 95.5855 70.7172 91.8876V26.8939L43.8232 0Z" fill="white"/>
</mask>
<g mask="url(#mask0_14_3)">
<path d="M43.8232 0H5.72348C2.02557 0 -1 3.02557 -1 6.72348V91.8876C-1 95.5855 2.02557 98.6111 5.72348 98.6111H63.9937C67.6916 98.6111 70.7172 95.5855 70.7172 91.8876V26.8939L55.029 15.6881L43.8232 0Z" fill="#673AB7"/>
</g>
<mask id="mask1_14_3" style="mask-type:alpha" maskUnits="userSpaceOnUse" x="-1" y="0" width="72" height="99">
<path d="M43.8232 0H5.72348C2.02557 0 -1 3.02557 -1 6.72348V91.8876C-1 95.5855 2.02557 98.6111 5.72348 98.6111H63.9937C67.6916 98.6111 70.7172 95.5855 70.7172 91.8876V26.8939L43.8232 0Z" fill="white"/>
</mask>
<g mask="url(#mask1_14_3)">
<path d="M28.135 76.1996H52.7878V71.7173H28.135V76.1996ZM28.135 49.3057V53.788H52.7878V49.3057H28.135ZM22.5321 51.5468C22.5321 53.4014 21.0249 54.9086 19.1704 54.9086C17.3158 54.9086 15.8086 53.4014 15.8086 51.5468C15.8086 49.6923 17.3158 48.1851 19.1704 48.1851C21.0249 48.1851 22.5321 49.6923 22.5321 51.5468ZM22.5321 62.7526C22.5321 64.6072 21.0249 66.1144 19.1704 66.1144C17.3158 66.1144 15.8086 64.6072 15.8086 62.7526C15.8086 60.8981 17.3158 59.3909 19.1704 59.3909C21.0249 59.3909 22.5321 60.8981 22.5321 62.7526ZM22.5321 73.9584C22.5321 75.813 21.0249 77.3202 19.1704 77.3202C17.3158 77.3202 15.8086 75.813 15.8086 73.9584C15.8086 72.1039 17.3158 70.5967 19.1704 70.5967C21.0249 70.5967 22.5321 72.1039 22.5321 73.9584ZM28.135 64.9938H52.7878V60.5115H28.135V64.9938Z" fill="#F1F1F1"/>
</g>
<mask id="mask2_14_3" style="mask-type:alpha" maskUnits="userSpaceOnUse" x="-1" y="0" width="72" height="99">
<path d="M43.8232 0H5.72348C2.02557 0 -1 3.02557 -1 6.72348V91.8876C-1 95.5855 2.02557 98.6111 5.72348 98.6111H63.9937C67.6916 98.6111 70.7172 95.5855 70.7172 91.8876V26.8939L43.8232 0Z" fill="white"/>
</mask>
<g mask="url(#mask2_14_3)">
<path d="M45.7898 24.9272L70.7172 49.8489V26.8938L45.7898 24.9272Z" fill="url(#paint0_linear_14_3)"/>
</g>
<mask id="mask3_14_3" style="mask-type:alpha" maskUnits="userSpaceOnUse" x="-1" y="0" width="72" height="99">
<path d="M43.8232 0H5.72348C2.02557 0 -1 3.02557 -1 6.72348V91.8876C-1 95.5855 2.02557 98.6111 5.72348 98.6111H63.9937C67.6916 98.6111 70.7172 95.5855 70.7172 91.8876V26.8939L43.8232 0Z" fill="white"/>
</mask>
<g mask="url(#mask3_14_3)">
<path d="M43.8232 0V20.1705C43.8232 23.8852 46.832 26.8939 50.5467 26.8939H70.7172L43.8232 0Z" fill="#B39DDB"/>
</g>
<mask id="mask4_14_3" style="mask-type:alpha" maskUnits="userSpaceOnUse" x="-1" y="0" width="72" height="99">
<path d="M43.8232 0H5.72348C2.02557 0 -1 3.02557 -1 6.72348V91.8876C-1 95.5855 2.02557 98.6111 5.72348 98.6111H63.9937C67.6916 98.6111 70.7172 95.5855 70.7172 91.8876V26.8939L43.8232 0Z" fill="white"/>
</mask>
<g mask="url(#mask4_14_3)">
<path d="M5.72348 0C2.02557 0 -1 3.02557 -1 6.72348V7.28377C-1 3.58586 2.02557 0.56029 5.72348 0.56029H43.8232V0H5.72348Z" fill="white" fill-opacity="0.2"/>
</g>
<mask id="mask5_14_3" style="mask-type:alpha" maskUnits="userSpaceOnUse" x="-1" y="0" width="72" height="99">
<path d="M43.8232 0H5.72348C2.02557 0 -1 3.02557 -1 6.72348V91.8876C-1 95.5855 2.02557 98.6111 5.72348 98.6111H63.9937C67.6916 98.6111 70.7172 95.5855 70.7172 91.8876V26.8939L43.8232 0Z" fill="white"/>
</mask>
<g mask="url(#mask5_14_3)">
<path d="M64.9937 98.0509H6.72348C3.02557 98.0509 0 95.0254 0 91.3274V91.8877C0 95.5856 3.02557 98.6112 6.72348 98.6112H64.9937C68.6916 98.6112 71.7172 95.5856 71.7172 91.8877V91.3274C71.7172 95.0254 68.6916 98.0509 64.9937 98.0509Z" fill="#311B92" fill-opacity="0.2"/>
</g>
<mask id="mask6_14_3" style="mask-type:alpha" maskUnits="userSpaceOnUse" x="-1" y="0" width="72" height="99">
<path d="M43.8232 0H5.72348C2.02557 0 -1 3.02557 -1 6.72348V91.8876C-1 95.5855 2.02557 98.6111 5.72348 98.6111H63.9937C67.6916 98.6111 70.7172 95.5855 70.7172 91.8876V26.8939L43.8232 0Z" fill="white"/>
</mask>
<g mask="url(#mask6_14_3)">
<path d="M50.5467 26.8938C46.832 26.8938 43.8232 23.8851 43.8232 20.1704V20.7306C43.8232 24.4454 46.832 27.4541 50.5467 27.4541H70.7172V26.8938H50.5467Z" fill="#311B92" fill-opacity="0.1"/>
<path d="M43.8232 0H5.72348C2.02557 0 -1 3.02557 -1 6.72348V91.8876C-1 95.5855 2.02557 98.6111 5.72348 98.6111H63.9937C67.6916 98.6111 70.7172 95.5855 70.7172 91.8876V26.8939L43.8232 0Z" fill="url(#paint1_radial_14_3)"/>
</g>
</g>
<defs>
<linearGradient id="paint0_linear_14_3" x1="58.2549" y1="27.0671" x2="58.2549" y2="49.8524" gradientUnits="userSpaceOnUse">
<stop stop-color="#311B92" stop-opacity="0.2"/>
<stop offset="1" stop-color="#311B92" stop-opacity="0.02"/>
</linearGradient>
<radialGradient id="paint1_radial_14_3" cx="0" cy="0" r="1" gradientUnits="userSpaceOnUse" gradientTransform="translate(1.27204 1.9601) scale(115.643)">
<stop stop-color="white" stop-opacity="0.1"/>
<stop offset="1" stop-color="white" stop-opacity="0"/>
</radialGradient>
<clipPath id="clip0_14_3">
<rect width="73" height="100" fill="white"/>
</clipPath>
</defs>
</svg>
