<svg width="90" height="96" viewBox="0 0 90 96" fill="none" xmlns="http://www.w3.org/2000/svg">
<path d="M17.5625 0C13.9381 0 11 2.89997 11 6.47727V88.5227C11 92.1 13.9381 95 17.5625 95H74.4375C78.0619 95 81 92.1 81 88.5227V25.9091L54.75 0H17.5625Z" fill="#F4B70A"/>
<path d="M17.5625 96C13.9381 96 11 92.5462 11 88.2857V87C11 91.2605 13.9381 94.7143 17.5625 94.7143H74.4375C78.0619 94.7143 81 91.2605 81 87V88.2857C81 92.5462 78.0619 96 74.4375 96H17.5625Z" fill="#EFA904"/>
<path d="M16.5854 0.5C12.9484 0.5 10 3.74061 10 7.73809V8.94444C10 4.94695 12.9484 1.70635 16.5854 1.70635H55L53.9024 0.5H16.5854Z" fill="#F6C028"/>
<path d="M81 53.2777V28.0324L77.1612 23.7222H58.6485C57.1828 23.7222 56.4487 25.7119 57.4852 26.8756L81 53.2777Z" fill="url(#paint0_linear_13_125)"/>
<path d="M55 0L82 27.4444H61.75C58.0221 27.4444 55 24.3726 55 20.5833V0Z" fill="#FADC87"/>
<path fill-rule="evenodd" clip-rule="evenodd" d="M30.1875 46.9443C28.9794 46.9443 28 47.9781 28 49.2534V81.5798C28 82.855 28.9794 83.8888 30.1875 83.8888H60.8125C62.0206 83.8888 63 82.855 63 81.5798V49.2534C63 47.9781 62.0206 46.9443 60.8125 46.9443H30.1875ZM58.625 57.335H32.375V73.4982H58.625V57.335Z" fill="white"/>
<defs>
<linearGradient id="paint0_linear_13_125" x1="69" y1="53.2777" x2="69" y2="23.1064" gradientUnits="userSpaceOnUse">
<stop stop-color="#F4B70A"/>
<stop offset="1" stop-color="#E2930A"/>
</linearGradient>
</defs>
</svg>
