<svg version="1.2" xmlns="http://www.w3.org/2000/svg" viewBox="0 0 2004 3120" width="2004" height="3120"><style>.a{fill:#edc80f;stroke:#0a7738;stroke-width:4}.b{fill:#006838;stroke:#006838;stroke-width:4}.c{fill:#14753b}.d{fill:#22b573;stroke:#14753b;stroke-width:9}.e{fill:#e0dad3;stroke:#14753b;stroke-width:9}.f{fill:#fbb03b;stroke:#14753b;stroke-width:9}.g{fill:#fbb03b;stroke:#14753b;stroke-width:9.1}</style><path fill-rule="evenodd" class="a" d="m632.4 3053.4c3.3 5.9 5 13.4 4.7 21.1-0.3 7.7-2.5 14.8-6.3 19.8-3.3 4.4-7.5 6.9-11.9 7-5.6 0.1-10.9-3.6-14.6-10.1-6.9-12.1-6.2-30.5 1.6-40.9 3.3-4.4 7.5-6.9 11.9-7 5.5-0.1 10.9 3.6 14.6 10.1zm-6.1 33c2.4-3.2 3.8-7.7 4-12.6 0.2-4.9-0.9-9.7-3-13.4-2.4-4.1-5.7-6.5-9.3-6.4-2.8 0-5.5 1.6-7.6 4.4-4.9 6.6-5.4 18.3-1 26 2.4 4.1 5.7 6.5 9.3 6.4 2.8-0.1 5.5-1.6 7.6-4.4z"/><path fill-rule="evenodd" class="a" d="m517 2915.6c3.9 1.9 6.7 6 7.9 11.4 2.6 12.7-4.5 29.6-15.8 37.7-6.1 4.4-12.5 5.4-17.5 3-3.9-1.9-6.7-6-7.9-11.4-1.3-6.2-0.3-13.5 2.7-20.6 3-7.1 7.7-13.2 13.2-17.1 6-4.4 12.4-5.5 17.4-3zm-20.9 42.6c3.2 1.6 7.3 0.9 11.1-1.9 7.2-5.1 11.7-15.9 10.1-24-0.7-3.4-2.5-6-5-7.2-3.2-1.6-7.3-0.9-11.1 1.9-3.5 2.5-6.5 6.4-8.4 10.9-1.9 4.5-2.5 9.2-1.7 13.1 0.7 3.4 2.5 5.9 5 7.2z"/><path class="a" d="m1698.3 279.5l31.6 15.5-531.7 1047.5-94.3 61.9-52.6 107.5-425.3 255.3-48.3 98.7 10 82.9-76.9 157.2-70.8 42.5-175 357.5-10.2-5 178.2-364.1 70.7-42.4 70.6-144.1-7.5-62.2-45.4 92.7-10.2-5 107.8-220.3 425.2-255.2 41.7-85.2-495.7 297.6-107.7 220.1-1.6 3.3-201.7 412-10.3-5 110-224.7-56.3 33.9-62.8 128.1-10.2-5 55-112.3-44.3 26.5-124 253.3-10.2-5.1 127.1-259.7 136.7-82.1 73-149.1-30.4 18.3-41.3 84.2-160.4 96.3-87.1 177.9-10.2-5 90.3-184.5 160.4-96.3 30.3-61.8-131.3 78.8-1.8-14.7 192.4-115.6 109.4-223.4 597.6-368.7z"/><path class="a" d="m1651.9 259.2l46.4 20.3-518.2 1045.8-615.8 323.2-97.2 198.5-203.9 122.5-104.2 212.8-10.3-5 107.4-219.4 204-122.4 19-38.8-253.2 152-72.7 148.5-10.2-5.1 75.9-155 271.1-162.8 23.7-48.4-333.6 200.3-53.8 109.8-10.2-5.1 56.9-116.2 351.3-210.9v0.5l33-67.4 608.2-317.1z"/><path class="a" d="m1097.7 1545.7c-11.1-6.1 631.3-1241.9 631.2-1241.7l-668.4 1365.3-89.8 41-194.5 397.3 20 166.7-200.9 410.3 7 58.1-84.2 172.1-13.4 1.5 84.2-172.1-5.7-47.7-67.9 40.7-78.9 161.2-10.2-5 82.1-167.7 76.9-46.1 41.3-84.3-129.3 77.6-55.8 114-10.2-5 59-120.5 147.3-88.4 145.5-297.1-5.8-48.6-125.6 256.6-10.2-5 133.3-272.4-11.7-97.3 121-247.1-44.2 26.5-134.9 275.6 10.1 83.6-145 296.2-10.2-5 141.8-289.7-10.1-83.6 103.9-212.2-51.2 30.7-120 245.2 8.7 72.1-145.2 296.6-44.6 26.8-113.9 232.6-10.2-5 117.1-239.1 44.6-26.8 138.8-283.5-8.7-72.1 126.4-258.3 69.2-41.5 26.5-54.2 61.5-36.9 0.1 0.8 41.8-85.4-184.6 110.8-418.9 855.8-10.2-5 244.5-499.5-71.5 42.9-162.4 331.7-10.2-5 165.6-338.2 89.4-53.7 166.6-340.5 202.6-121.6 16.8-34.4 77.2-36.8 46-93.9-346.3 207.9-188.1 384.1-90.9 54.6-85.9 175.5-10.2-5 89.1-182 90.9-54.6 177.1-361.8-49.2 29.5-1.8-14.7z"/><g style="opacity:.7"><path class="b" d=""/></g><path class="a" d=""/><g style="opacity:.7"><path class="b" d=""/></g><path class="a" d=""/><path fill-rule="evenodd" class="a" d="m151.1 2171c3.9 1.9 6.7 6 7.9 11.4 1.3 6.2 0.3 13.5-2.7 20.6-3 7.1-7.7 13.2-13.2 17.1-6.1 4.4-12.5 5.5-17.5 3-3.9-1.9-6.7-6-7.9-11.4-2.6-12.7 4.5-29.6 15.9-37.7 6.1-4.4 12.5-5.5 17.5-3zm-20.8 42.6c3.2 1.6 7.3 0.9 11.1-1.9 3.5-2.5 6.5-6.4 8.4-10.9 1.9-4.5 2.5-9.2 1.7-13.1-0.7-3.4-2.5-6-5-7.2-3.2-1.6-7.3-0.9-11.1 1.9-7.2 5.1-11.7 15.9-10.1 24 0.7 3.4 2.5 5.9 5 7.2z"/><path fill-rule="evenodd" class="a" d="m276.1 2037.2c3.9 1.9 6.7 6 7.9 11.4 2.6 12.7-4.5 29.6-15.8 37.7-6.1 4.4-12.5 5.5-17.5 3-3.9-1.9-6.7-6-7.9-11.4-1.3-6.2-0.3-13.5 2.7-20.6 3-7.1 7.7-13.2 13.2-17.1 6-4.4 12.4-5.5 17.4-3zm-20.9 42.6c3.2 1.6 7.3 0.9 11.1-1.9 7.2-5.1 11.7-15.9 10.1-24-0.7-3.4-2.5-6-5-7.2-3.2-1.6-7.3-0.9-11.1 1.9-3.5 2.5-6.5 6.4-8.4 10.9-1.9 4.5-2.5 9.2-1.7 13.1 0.8 3.4 2.5 5.9 5 7.2z"/><path fill-rule="evenodd" class="a" d="m131.2 2433.4c3.9 1.9 6.7 6 7.9 11.4 1.3 6.2 0.3 13.5-2.7 20.6-3 7.1-7.7 13.2-13.2 17.1-6.1 4.4-12.5 5.5-17.5 3-3.9-1.9-6.7-6-7.9-11.4-2.6-12.7 4.5-29.6 15.8-37.7 6.2-4.4 12.5-5.4 17.6-3zm-20.9 42.6c3.2 1.6 7.3 0.9 11.1-1.9 3.5-2.5 6.5-6.4 8.4-10.9 1.9-4.5 2.5-9.2 1.7-13.1-0.7-3.4-2.5-6-5-7.2-3.2-1.6-7.3-0.9-11.1 1.9-7.2 5.1-11.7 15.9-10.1 24 0.7 3.4 2.5 6 5 7.2z"/><path fill-rule="evenodd" class="a" d="m138.9 2314.3c3.9 1.9 6.7 6 7.9 11.4 2.6 12.7-4.5 29.6-15.8 37.7-6.1 4.4-12.5 5.5-17.5 3-3.9-1.9-6.7-6-7.9-11.4-1.3-6.2-0.3-13.5 2.7-20.6 3-7.1 7.7-13.2 13.2-17.1 6-4.4 12.4-5.4 17.4-3zm-20.9 42.6c3.2 1.6 7.3 0.9 11.1-1.9 7.2-5.1 11.7-15.9 10.1-24-0.7-3.4-2.5-6-5-7.2-3.2-1.6-7.3-0.9-11.1 1.9-3.5 2.5-6.5 6.4-8.4 10.9-1.9 4.5-2.5 9.2-1.7 13.1 0.7 3.4 2.5 6 5 7.2z"/><path fill-rule="evenodd" class="a" d="m275.2 2339.4c3.9 1.9 6.7 6 7.9 11.4 1.3 6.2 0.3 13.5-2.7 20.6-3 7.1-7.7 13.2-13.2 17.1-6.1 4.4-12.5 5.4-17.5 3-3.9-1.9-6.7-6-7.9-11.4-2.6-12.7 4.5-29.6 15.8-37.7 6.2-4.4 12.5-5.5 17.6-3zm-20.9 42.6c3.2 1.6 7.3 0.9 11.1-1.9 3.5-2.5 6.5-6.4 8.4-10.9 1.9-4.5 2.5-9.2 1.7-13.1-0.7-3.4-2.5-6-5-7.2-3.2-1.6-7.3-0.9-11.1 1.9-7.2 5.1-11.7 15.9-10.1 24 0.7 3.4 2.5 6 5 7.2z"/><path fill-rule="evenodd" class="a" d="m517.4 1969.9c3.9 1.9 6.7 6 7.9 11.4 2.6 12.7-4.5 29.6-15.8 37.7-6.1 4.4-12.5 5.5-17.5 3-3.9-1.9-6.7-6-7.9-11.4-2.6-12.7 4.5-29.6 15.8-37.7 6.1-4.3 12.5-5.4 17.5-3zm-20.9 42.6c3.2 1.6 7.3 0.9 11.1-1.9 7.2-5.1 11.7-15.9 10.1-24-0.7-3.4-2.5-6-5-7.2-3.2-1.6-7.3-0.9-11.1 1.9-7.2 5.1-11.7 15.9-10.1 24 0.7 3.4 2.5 6 5 7.2z"/><path fill-rule="evenodd" class="a" d="m666.5 1791c3.9 1.9 6.7 6 7.9 11.4 2.6 12.7-4.5 29.6-15.8 37.7-6.1 4.4-12.5 5.5-17.5 3-3.9-1.9-6.7-6-7.9-11.4-2.6-12.7 4.5-29.6 15.8-37.7 6.1-4.4 12.5-5.5 17.5-3zm-20.8 42.6c3.2 1.6 7.3 0.9 11.1-1.9 7.2-5.1 11.7-15.9 10.1-24-0.7-3.4-2.5-6-5-7.2-3.2-1.6-7.3-0.9-11.1 1.9-7.2 5.1-11.7 15.9-10.1 24 0.7 3.4 2.4 6 5 7.2z"/><path fill-rule="evenodd" class="a" d="m259.7 2496.3c3.9 1.9 6.7 6 7.9 11.4 1.3 6.2 0.3 13.5-2.7 20.6-3 7.1-7.7 13.2-13.2 17.1-6.1 4.4-12.5 5.5-17.5 3-3.9-1.9-6.7-6-7.9-11.4-2.6-12.7 4.5-29.6 15.8-37.7 6.2-4.3 12.6-5.4 17.6-3zm-20.9 42.6c3.2 1.6 7.3 0.9 11.1-1.9 3.5-2.5 6.5-6.4 8.4-10.9 1.9-4.5 2.5-9.2 1.7-13.1-0.7-3.4-2.5-6-5-7.2-3.2-1.6-7.2-0.9-11.1 1.9-7.2 5.1-11.7 15.9-10.1 24 0.7 3.4 2.5 6 5 7.2z"/><path fill-rule="evenodd" class="a" d="m329.3 2586.9c3.9 1.9 6.7 6 7.9 11.4 2.6 12.7-4.5 29.6-15.8 37.7-6.1 4.4-12.5 5.5-17.5 3-3.9-1.9-6.7-6-7.9-11.4-1.3-6.2-0.3-13.5 2.7-20.6 3-7.1 7.7-13.2 13.2-17.1 6-4.4 12.4-5.5 17.4-3zm-20.9 42.6c3.2 1.6 7.2 0.9 11.1-1.9 7.2-5.1 11.7-15.9 10.1-24-0.7-3.4-2.5-6-5-7.2-3.2-1.6-7.3-0.9-11.1 1.9-3.5 2.5-6.5 6.4-8.4 10.9-1.9 4.5-2.5 9.2-1.7 13.1 0.8 3.4 2.5 6 5 7.2z"/><path fill-rule="evenodd" class="a" d="m327.2 2707.6c3.9 1.9 6.7 6 7.9 11.4 2.6 12.7-4.5 29.6-15.8 37.7-6.1 4.4-12.5 5.5-17.5 3-3.9-1.9-6.7-6-7.9-11.4-1.3-6.2-0.3-13.5 2.7-20.6 3-7.1 7.7-13.2 13.2-17.1 6-4.3 12.4-5.4 17.4-3zm-20.9 42.7c3.2 1.6 7.3 0.9 11.1-1.9 7.2-5.1 11.7-15.9 10.1-24-0.7-3.4-2.5-6-5-7.2-3.2-1.6-7.3-0.9-11.1 1.9-3.5 2.5-6.5 6.4-8.4 10.9-1.9 4.5-2.5 9.2-1.7 13.1 0.7 3.4 2.5 5.9 5 7.2z"/><path fill-rule="evenodd" class="a" d="m324.2 2850.1c3.9 1.9 6.7 6 7.9 11.4 2.6 12.7-4.5 29.6-15.8 37.7-6.1 4.4-12.5 5.5-17.5 3-3.9-1.9-6.7-6-7.9-11.4-2.6-12.7 4.5-29.6 15.8-37.7 6.1-4.3 12.5-5.4 17.5-3zm-20.9 42.7c3.2 1.6 7.3 0.9 11.1-1.9 7.2-5.1 11.7-15.9 10.1-24-0.7-3.4-2.5-6-5-7.2-3.2-1.6-7.3-0.9-11.1 1.9-7.2 5.1-11.7 15.9-10.1 24 0.7 3.4 2.5 5.9 5 7.2z"/><path fill-rule="evenodd" class="a" d="m436.4 2781.6c3.9 1.9 6.7 6 7.9 11.4 1.3 6.2 0.3 13.5-2.7 20.6-3 7.1-7.7 13.2-13.2 17.1-6.1 4.4-12.5 5.4-17.5 3-3.9-1.9-6.7-6-7.9-11.4-1.3-6.2-0.3-13.5 2.7-20.6 3-7.1 7.7-13.2 13.2-17.1 6.1-4.3 12.5-5.4 17.5-3zm-20.8 42.6c3.2 1.6 7.3 0.9 11.1-1.9 3.5-2.5 6.5-6.4 8.4-10.9 1.9-4.5 2.5-9.2 1.7-13.1-0.7-3.4-2.5-6-5-7.2-3.2-1.6-7.2-0.9-11.1 1.9-3.5 2.5-6.5 6.4-8.4 10.9-1.9 4.5-2.5 9.2-1.7 13.1 0.7 3.4 2.5 6 5 7.2z"/><path fill-rule="evenodd" class="a" d="m566 2537.5c3.9 1.9 6.7 6 7.9 11.4 2.6 12.7-4.5 29.6-15.9 37.7-6.1 4.4-12.5 5.5-17.5 3-3.9-1.9-6.7-6-7.9-11.4-2.6-12.7 4.5-29.6 15.9-37.7 6.1-4.4 12.4-5.5 17.5-3zm-20.9 42.6c3.2 1.6 7.2 0.9 11.1-1.9 7.2-5.1 11.7-15.9 10.1-24-0.7-3.4-2.5-6-5-7.2-3.2-1.6-7.3-0.9-11.1 1.9-7.2 5.1-11.7 15.9-10.1 24 0.7 3.4 2.5 5.9 5 7.2z"/><path fill-rule="evenodd" class="a" d="m647.7 2470.7c3.9 1.9 6.7 6 7.9 11.4 2.6 12.7-4.5 29.6-15.8 37.7-6.1 4.4-12.5 5.5-17.5 3-3.9-1.9-6.7-6-7.9-11.4-2.6-12.7 4.5-29.6 15.8-37.7 6.1-4.3 12.5-5.4 17.5-3zm-20.8 42.6c3.2 1.6 7.3 0.9 11.1-1.9 7.2-5.1 11.7-15.9 10.1-24-0.7-3.4-2.5-6-5-7.2-3.2-1.6-7.3-0.9-11.1 1.9-7.2 5.1-11.7 15.9-10.1 24 0.7 3.4 2.5 6 5 7.2z"/><path fill-rule="evenodd" class="a" d="m371.9 2379.3c3.9 1.9 6.7 6 7.9 11.4 2.6 12.7-4.5 29.6-15.8 37.7-6.1 4.4-12.5 5.4-17.5 3-3.9-1.9-6.7-6-7.9-11.4-1.3-6.2-0.3-13.5 2.7-20.6 3-7.1 7.7-13.2 13.2-17.1 6-4.4 12.4-5.5 17.4-3zm-20.9 42.6c3.2 1.6 7.3 0.9 11.1-1.9 7.2-5.1 11.7-15.9 10.1-24-0.7-3.4-2.5-6-5-7.2-3.2-1.6-7.3-0.9-11.1 1.9-3.5 2.5-6.5 6.4-8.4 10.9-1.9 4.5-2.5 9.2-1.7 13.1 0.8 3.4 2.5 6 5 7.2z"/><path fill-rule="evenodd" class="a" d="m253.8 2273c3.9 1.9 6.7 6 7.9 11.4 1.3 6.2 0.3 13.5-2.7 20.6-3 7.1-7.7 13.2-13.2 17.1-6.1 4.4-12.5 5.4-17.5 3-3.9-1.9-6.7-6-7.9-11.4-2.6-12.7 4.5-29.6 15.8-37.7 6.2-4.4 12.6-5.5 17.6-3zm-20.9 42.6c3.2 1.6 7.3 0.9 11.1-1.9 3.5-2.5 6.5-6.4 8.4-10.9 1.9-4.5 2.5-9.2 1.7-13.1-0.7-3.4-2.5-6-5-7.2-3.2-1.6-7.3-0.9-11.1 1.9-7.2 5.1-11.7 15.9-10.1 24 0.7 3.4 2.5 5.9 5 7.2z"/><path fill-rule="evenodd" class="a" d="m432.9 2889.3c3.9 1.9 6.7 6 7.9 11.4 1.3 6.2 0.3 13.5-2.7 20.6-3 7.1-7.7 13.2-13.2 17.1-6.1 4.4-12.5 5.4-17.5 3-3.9-1.9-6.7-6-7.9-11.4-1.3-6.2-0.3-13.5 2.7-20.6 3-7.1 7.7-13.2 13.2-17.1 6.1-4.3 12.5-5.4 17.5-3zm-20.9 42.6c3.2 1.6 7.3 0.9 11.1-1.9 3.5-2.5 6.5-6.4 8.4-10.9 1.9-4.5 2.5-9.2 1.7-13.1-0.7-3.4-2.5-6-5-7.2-3.2-1.6-7.2-0.9-11.1 1.9-3.5 2.5-6.5 6.4-8.4 10.9-1.9 4.5-2.5 9.2-1.7 13.1 0.7 3.4 2.5 6 5 7.2z"/><path fill-rule="evenodd" class="a" d="m150.2 2089.7c3.9 1.9 6.7 6 7.9 11.4 2.6 12.7-4.5 29.6-15.8 37.7-6.1 4.4-12.5 5.5-17.5 3-3.9-1.9-6.7-6-7.9-11.4-2.6-12.7 4.5-29.6 15.9-37.7 6-4.3 12.4-5.4 17.4-3zm-20.8 42.6c3.2 1.6 7.2 0.9 11.1-1.9 7.2-5.1 11.7-15.9 10.1-24-0.7-3.4-2.5-6-5-7.2-3.2-1.6-7.3-0.9-11.1 1.9-7.2 5.1-11.7 15.9-10.1 24 0.7 3.5 2.5 6 5 7.2z"/><path fill-rule="evenodd" class="a" d="m115 2026.7c3.9 1.9 6.7 6 7.9 11.4 2.6 12.7-4.5 29.6-15.8 37.7-6.1 4.4-12.5 5.5-17.5 3-3.9-1.9-6.7-6-7.9-11.4-1.3-6.2-0.3-13.5 2.7-20.6 3-7.1 7.7-13.2 13.2-17.1 6-4.4 12.4-5.5 17.4-3zm-20.9 42.6c3.2 1.6 7.3 0.9 11.1-1.9 7.2-5.1 11.7-15.9 10.1-24-0.7-3.4-2.5-6-5-7.2-3.2-1.6-7.3-0.9-11.1 1.9-3.5 2.5-6.5 6.4-8.4 10.9-1.9 4.5-2.5 9.2-1.7 13.1 0.7 3.4 2.5 5.9 5 7.2z"/><g style="opacity:.7"><path class="b" d=""/></g><path class="a" d=""/><g style="opacity:.7"><path class="b" d=""/></g><path class="a" d=""/><g style="opacity:.7"><path class="b" d=""/></g><path class="a" d=""/><path class="a" d="m1365.1 2295.9c-3.6 0.1 12.5-11.1 7.6-4.4-2.1 2.8-4.8 4.4-7.6 4.4z"/><path class="a" d="m1247.2 1390.6l101.6 694.8-100.9 227.4 35.2 221.6-12.4 8.2-24-151.3-27.9 62.9 29.3 184.8-83.2 187.8-10.5-4.6 80.3-181.1-29.3-184.8 38-85.7-5.6-35.1-67.3 151.8 25 157.4-117.2 264.4-10.5-4.6 114.3-257.7-8.1-51.1-50.7 114.4-10.4-4.7 57.8-130.4-10.3-64.9-101.4 228.7-10.4-4.7 185.9-419.3 1.5-3.3 99.4-224.1-90.7-570.9-38.4 86.6 77.8 489.8-99.4 224.2-10.5-4.6 41.9-94.4-52.4 34.3-65.1 146.6 13 81.5-164.4 370.5-10.4-4.6 161.4-363.9-13-81.4 71-160 70-45.7 44.5-100.4-77.8-489.9 48.5-109.4-13.1-112 460.6-1080.6 32.2 14.2z"/><path class="a" d="m1274.9 1356.4l148 669.7-30.4 68.6 0.4-0.2 64.3 404.6-52.5 118.3-10.5-4.6 49.6-111.7-61.1-384.4-21.8 49.3 49.6 312.4-70 157.8-10.4-4.7 67-151.1-46.3-291.6-17.5 39.5 37.3 234.9-99 223.3-10.5-4.6 96.1-216.7-37.3-234.9 89.6-202.1-148.2-679.4 468-1069.2 45.5 22.4z"/><path class="a" d="m1208.8 2099.4l-12.4 8.1-9-56.7-163.4 368.2 16.6 104.7-82.2 185.2-10.4-4.6 79.2-178.6-16.6-104.7 173.4-391-65.3-402.9-42.4 95.6 23.4 86.8-15.5 35 37 233.3-153.7 346.6 16.4 103-152.7 344.2-10.4-4.6 149.7-337.6-13.1-82.3-225.4 508.4-10.4-4.6 386.3-871-33.8-212.6-38.5 86.9 0.7-0.4 11.2 70.8-24.5 55.1 12.7 79.7-116.6 262.9-60.8 39.7-127.9 288.5 8.2 51.4-108 243.4-10.4-4.6 105-236.8-8.2-51.4 133.9-301.8 60.8-39.7 110.7-249.5-9.4-59-95.8 215.9-70.5 46-130.7 294.8-10.4-4.6 133.7-301.4 70.5-46 124.4-280.5-8.1-50.9-111.6 251.5-88.6 74.8-116.4 256-10.4-4.6 115.8-261.1 92.2-76.3 179.3-404.4-26.3-95.2 616.3-1389.6c-0.5 1-543.7 1282.3-545.5 1281.6z"/><g style="opacity:.7"><path class="b" d=""/></g><path class="a" d=""/><g style="opacity:.7"><path class="b" d=""/></g><path class="a" d=""/><g style="opacity:.7"><path class="b" d=""/></g><path class="a" d=""/><path fill-rule="evenodd" class="a" d="m701.7 2555.3c3.9 1.9 6.7 6 7.9 11.4 1.3 6.2 0.3 13.5-2.7 20.6-3 7.1-7.7 13.2-13.2 17.1-6.1 4.4-12.5 5.5-17.5 3-3.9-1.9-6.7-6-7.9-11.4-2.6-12.7 4.5-29.6 15.8-37.7 6.2-4.4 12.6-5.4 17.6-3zm-20.9 42.6c3.2 1.6 7.3 0.9 11.1-1.9 3.5-2.5 6.5-6.4 8.4-10.9 1.9-4.5 2.5-9.2 1.7-13.1-0.7-3.4-2.5-6-5-7.2-3.2-1.6-7.3-0.9-11.1 1.9-7.2 5.1-11.7 15.9-10.1 24 0.7 3.4 2.5 6 5 7.2z"/><path fill-rule="evenodd" class="a" d="m712.7 2658.2c3.9 1.9 6.7 6 7.9 11.4 1.3 6.2 0.3 13.5-2.7 20.6-3 7.1-7.7 13.2-13.2 17.1-6.1 4.4-12.5 5.5-17.5 3-3.9-1.9-6.7-6-7.9-11.4-2.6-12.7 4.5-29.6 15.8-37.7 6.2-4.3 12.5-5.4 17.6-3zm-20.9 42.6c3.2 1.6 7.3 0.9 11.1-1.9 3.5-2.5 6.5-6.4 8.4-10.9 1.9-4.5 2.5-9.2 1.7-13.1-0.7-3.4-2.5-6-5-7.2-3.2-1.6-7.3-0.9-11.1 1.9-7.2 5.1-11.7 15.9-10.1 24 0.7 3.4 2.5 6 5 7.2z"/><path fill-rule="evenodd" class="a" d="m729.3 2950.7c3.9 1.9 6.7 6 7.9 11.4 1.3 6.2 0.3 13.5-2.7 20.6-3 7.1-7.7 13.2-13.2 17.1-6.1 4.4-12.5 5.5-17.5 3-3.9-1.9-6.7-6-7.9-11.4-2.6-12.7 4.5-29.6 15.8-37.7 6.2-4.4 12.6-5.5 17.6-3zm-20.9 42.6c3.2 1.6 7.3 0.9 11.1-1.9 3.5-2.5 6.5-6.4 8.4-10.9 1.9-4.5 2.5-9.2 1.7-13.1-0.7-3.4-2.5-6-5-7.2-3.2-1.6-7.3-0.9-11.1 1.9-7.2 5.1-11.7 15.9-10.1 24 0.8 3.4 2.5 5.9 5 7.2z"/><path fill-rule="evenodd" class="a" d="m829.5 2866.3c3.9 1.9 6.7 6 7.9 11.4 1.3 6.2 0.3 13.5-2.7 20.6-3 7.1-7.7 13.2-13.2 17.1-6.1 4.4-12.5 5.5-17.5 3-3.9-1.9-6.7-6-7.9-11.4-2.6-12.7 4.5-29.6 15.8-37.7 6.2-4.4 12.6-5.5 17.6-3zm-20.9 42.6c3.2 1.6 7.3 0.9 11.1-1.9 3.5-2.5 6.5-6.4 8.4-10.9 1.9-4.5 2.5-9.2 1.7-13.1-0.7-3.4-2.5-6-5-7.2-3.2-1.6-7.3-0.9-11.1 1.9-7.2 5.1-11.7 15.9-10.1 24 0.7 3.4 2.5 5.9 5 7.2z"/><path fill-rule="evenodd" class="a" d="m946 2848.1c3.9 1.9 6.7 6 7.9 11.4 1.3 6.2 0.3 13.5-2.7 20.6-3 7.1-7.7 13.2-13.2 17.1-6.1 4.4-12.5 5.5-17.5 3-3.9-1.9-6.7-6-7.9-11.4-2.6-12.7 4.5-29.6 15.8-37.7 6.2-4.3 12.6-5.4 17.6-3zm-20.9 42.7c3.2 1.6 7.3 0.9 11.1-1.9 3.5-2.5 6.5-6.4 8.4-10.9 1.9-4.5 2.5-9.2 1.7-13.1-0.7-3.4-2.5-6-5-7.2-3.2-1.6-7.3-0.9-11.1 1.9-7.2 5.1-11.7 15.9-10.1 24 0.7 3.4 2.5 5.9 5 7.2z"/><path fill-rule="evenodd" class="a" d="m953.2 2710c3.9 1.9 6.7 6 7.9 11.4 1.3 6.2 0.3 13.5-2.7 20.6-3 7.1-7.7 13.2-13.2 17.1-6.1 4.4-12.5 5.5-17.5 3-3.9-1.9-6.7-6-7.9-11.4-2.6-12.7 4.5-29.6 15.8-37.7 6.2-4.4 12.5-5.5 17.6-3zm-20.9 42.6c3.2 1.6 7.3 0.9 11.1-1.9 3.5-2.5 6.5-6.4 8.4-10.9 1.9-4.5 2.5-9.2 1.7-13.1-0.7-3.4-2.5-6-5-7.2-3.2-1.6-7.3-0.9-11.1 1.9-7.2 5.1-11.7 15.9-10.1 24 0.7 3.4 2.5 5.9 5 7.2z"/><path fill-rule="evenodd" class="a" d="m1060 2735.9c3.9 1.9 6.7 6 7.9 11.4 1.3 6.2 0.3 13.5-2.7 20.6-3 7.1-7.7 13.2-13.2 17.1-6.1 4.4-12.5 5.5-17.5 3-3.9-1.9-6.7-6-7.9-11.4-2.6-12.7 4.5-29.6 15.8-37.7 6.2-4.4 12.6-5.5 17.6-3zm-20.8 42.6c3.2 1.6 7.3 0.9 11.1-1.9 3.5-2.5 6.5-6.4 8.4-10.9 1.9-4.5 2.5-9.2 1.7-13.1-0.7-3.4-2.5-6-5-7.2-3.2-1.6-7.3-0.9-11.1 1.9-7.2 5.1-11.7 15.9-10.1 24 0.7 3.4 2.4 5.9 5 7.2z"/><path fill-rule="evenodd" class="a" d="m1074.2 2906.2c3.9 1.9 6.7 6 7.9 11.4 1.3 6.2 0.3 13.5-2.7 20.6-3 7.1-7.7 13.2-13.2 17.1-6.1 4.4-12.5 5.5-17.5 3-3.9-1.9-6.7-6-7.9-11.4-2.6-12.7 4.5-29.6 15.8-37.7 6.2-4.4 12.6-5.5 17.6-3zm-20.8 42.6c3.2 1.6 7.3 0.9 11.1-1.9 3.5-2.5 6.5-6.4 8.4-10.9 1.9-4.5 2.5-9.2 1.7-13.1-0.7-3.4-2.5-6-5-7.2-3.2-1.6-7.3-0.9-11.1 1.9-7.2 5.1-11.7 15.9-10.1 24 0.7 3.4 2.4 6 5 7.2z"/><path fill-rule="evenodd" class="a" d="m1182.9 2312.2c3.9 1.9 6.7 6 7.9 11.4 1.3 6.2 0.3 13.5-2.7 20.6-3 7.1-7.7 13.2-13.2 17.1-6.1 4.4-12.5 5.5-17.5 3-3.9-1.9-6.7-6-7.9-11.4-2.6-12.7 4.5-29.6 15.8-37.7 6.2-4.3 12.6-5.4 17.6-3zm-20.9 42.7c3.2 1.6 7.3 0.9 11.1-1.9 3.5-2.5 6.5-6.4 8.4-10.9 1.9-4.5 2.5-9.2 1.7-13.1-0.7-3.4-2.5-6-5-7.2-3.2-1.6-7.3-0.9-11.1 1.9-7.2 5.1-11.7 15.9-10.1 24 0.7 3.4 2.5 5.9 5 7.2z"/><path fill-rule="evenodd" class="a" d="m1121.6 2698.6c3.9 1.9 6.7 6 7.9 11.4 1.3 6.2 0.3 13.5-2.7 20.6-3 7.1-7.7 13.2-13.2 17.1-6.1 4.4-12.5 5.5-17.5 3-3.9-1.9-6.7-6-7.9-11.4-2.6-12.7 4.5-29.6 15.8-37.7 6.2-4.3 12.6-5.4 17.6-3zm-20.9 42.7c3.2 1.6 7.3 0.9 11.1-1.9 3.5-2.5 6.5-6.4 8.4-10.9 1.9-4.5 2.5-9.2 1.7-13.1-0.7-3.4-2.5-6-5-7.2-3.2-1.6-7.3-0.9-11.1 1.9-7.2 5.1-11.7 15.9-10.1 24 0.8 3.4 2.5 5.9 5 7.2z"/><path fill-rule="evenodd" class="a" d="m1163.5 2826.3c3.9 1.9 6.7 6 7.9 11.4 1.3 6.2 0.3 13.5-2.7 20.6-3 7.1-7.7 13.2-13.2 17.1-6.1 4.4-12.5 5.5-17.5 3-3.9-1.9-6.7-6-7.9-11.4-2.6-12.7 4.5-29.6 15.8-37.7 6.2-4.4 12.6-5.4 17.6-3zm-20.9 42.6c3.2 1.6 7.3 0.9 11.1-1.9 3.5-2.5 6.5-6.4 8.4-10.9 1.9-4.5 2.5-9.2 1.7-13.1-0.7-3.4-2.5-6-5-7.2-3.2-1.6-7.3-0.9-11.1 1.9-7.2 5.1-11.7 15.9-10.1 24 0.7 3.4 2.5 6 5 7.2z"/><path fill-rule="evenodd" class="a" d="m1292.4 2528c3.9 1.9 6.7 6 7.9 11.4 1.3 6.2 0.3 13.5-2.7 20.6-3 7.1-7.7 13.2-13.2 17.1-6.1 4.4-12.5 5.5-17.5 3-3.9-1.9-6.7-6-7.9-11.4-2.6-12.7 4.5-29.6 15.8-37.7 6.2-4.3 12.6-5.4 17.6-3zm-20.9 42.6c3.2 1.6 7.3 0.9 11.1-1.9 3.5-2.5 6.5-6.4 8.4-10.9 1.9-4.5 2.5-9.2 1.7-13.1-0.7-3.4-2.5-6-5-7.2-3.2-1.6-7.3-0.9-11.1 1.9-7.2 5.1-11.7 15.9-10.1 24 0.8 3.5 2.5 6 5 7.2z"/><path fill-rule="evenodd" class="a" d="m1269 2685.6c3.9 1.9 6.7 6 7.9 11.4 1.3 6.2 0.3 13.5-2.7 20.6-3 7.1-7.7 13.2-13.2 17.1-6.1 4.4-12.5 5.5-17.5 3-3.9-1.9-6.7-6-7.9-11.4-2.6-12.7 4.5-29.6 15.8-37.7 6.2-4.3 12.6-5.4 17.6-3zm-20.8 42.6c3.2 1.6 7.3 0.9 11.1-1.9 3.5-2.5 6.5-6.4 8.4-10.9 1.9-4.5 2.5-9.2 1.7-13.1-0.7-3.4-2.5-6-5-7.2-3.2-1.6-7.3-0.9-11.1 1.9-7.2 5.1-11.7 15.9-10.1 24 0.7 3.4 2.5 6 5 7.2z"/><path fill-rule="evenodd" class="a" d="m1335.6 2635c3.9 1.9 6.7 6 7.9 11.4 1.3 6.2 0.3 13.5-2.7 20.6-3 7.1-7.7 13.2-13.2 17.1-6.1 4.4-12.5 5.5-17.5 3-3.9-1.9-6.7-6-7.9-11.4-2.6-12.7 4.5-29.6 15.8-37.7 6.2-4.4 12.6-5.5 17.6-3zm-20.9 42.6c3.2 1.6 7.3 0.9 11.1-1.9 3.5-2.5 6.5-6.4 8.4-10.9 1.9-4.5 2.5-9.2 1.7-13.1-0.7-3.4-2.5-6-5-7.2-3.2-1.6-7.3-0.9-11.1 1.9-7.2 5.1-11.7 15.9-10.1 24 0.8 3.4 2.5 6 5 7.2z"/><path fill-rule="evenodd" class="a" d="m1399.3 2616.7c3.9 1.9 6.7 6 7.9 11.4 1.3 6.2 0.3 13.5-2.7 20.6-3 7.1-7.7 13.2-13.2 17.1-6.1 4.4-12.5 5.5-17.5 3-3.9-1.9-6.7-6-7.9-11.4-2.6-12.7 4.5-29.6 15.8-37.7 6.2-4.3 12.6-5.4 17.6-3zm-20.9 42.6c3.2 1.6 7.3 0.9 11.1-1.9 3.5-2.5 6.5-6.4 8.4-10.9 1.9-4.5 2.5-9.2 1.7-13.1-0.7-3.4-2.5-6-5-7.2-3.2-1.6-7.3-0.9-11.1 1.9-7.2 5.1-11.7 15.9-10.1 24 0.7 3.4 2.5 6 5 7.2z"/><path fill-rule="evenodd" class="a" d="m1221.4 2102.1c3.9 1.9 6.7 6 7.9 11.4 1.3 6.2 0.3 13.5-2.7 20.6-3 7.1-7.7 13.2-13.2 17.1-6.1 4.4-12.5 5.5-17.5 3-3.9-1.9-6.7-6-7.9-11.4-2.6-12.7 4.5-29.6 15.8-37.7 6.2-4.4 12.6-5.5 17.6-3zm-20.9 42.6c3.2 1.6 7.3 0.9 11.1-1.9 3.5-2.5 6.5-6.4 8.4-10.9 1.9-4.5 2.5-9.2 1.7-13.1-0.7-3.4-2.5-6-5-7.2-3.2-1.6-7.3-0.9-11.1 1.9-7.2 5.1-11.7 15.9-10.1 24 0.7 3.4 2.5 6 5 7.2z"/><path fill-rule="evenodd" class="c" d="m1331.2 971.1c38.4-197.1 365.3-1046.4 581-911.4 260.4 163-333.8 839.3-432.4 1014.6-359.3 638.5-190.7 112.8-148.6-103.2z"/><path fill-rule="evenodd" class="d" d="m1287.9 1270.4c-174.2 62-38.3-208.8 0.5-312.2 70.3-188.1 341.1-996.4 580.9-911.5 316.6 112-294.1 852-413.8 1036.3-22.4 34.4-176.3 230.4-195.7 214.2z"/><path fill-rule="evenodd" class="e" d="m1815.4 342.2c14-0.6-188.9 371.9-271.7 514.9-30.9 53.1-80.7 143.6-88.9 139.7-9-4.4 54.7-137.9 64.9-158.7 37.7-76.6 279.7-495.2 295.7-495.9z"/><path fill-rule="evenodd" class="f" d="m1746.3 138c26.3-18.4 115.6-12.2 118.2 56.8 1.8 47.2-30.5 81.3-76.3 79-48.3-2.4-71.1-31.1-73.9-55-3.6-31.4 4.9-61.8 32-80.8z"/><path fill-rule="evenodd" class="f" d="m1251.1 1052.8c20.3-43.9 196.2 40.9 176.3 79.4-20.5 39.7-119.4 232.3-170.4 274.4-31.4 25.9-48.8-3.5-70.2-1.4-1.5 0.1-65.9-33-60.7-61.3 10.7-58.7 97.6-232.1 125-291.1z"/><path fill-rule="evenodd" class="g" d="m1257 1058.5c21.4-42.3 188.1 46.7 167.2 83.9-21.4 38.1-122.1 223.8-173.5 263.3-31.7 24.3-47.7-5.2-68.9-3.8-1.4 0.1-63.4-34.6-57.4-62.2 12-54.6 101-218.9 132.6-281.2z"/></svg>